# xmcd CD database file
#
# Track frame offsets:
#	150
#	19952
#	37802
#	52261
#	64958
#	78839
#	96517
#	114292
#	146276
#	161087
#	176440
#	194463
#
# Disc length: 2841 seconds
#
# Revision: 2
# Processed by: cddbd v1.5.2PL0 Copyright (c) Steve Scherf et al.
# Submitted via: CDex 1.51
#
DISCID=a00b170c
DTITLE=Sylvia - Pillow Talk
DYEAR=1900
DGENRE=Soul
TTITLE0=Pillow Talk
TTITLE1=Give It Up In Vain
TTITLE2=Sunday
TTITLE3=Don't Leave Me Starving
TTITLE4=My Thing
TTITLE5=Didn't I
TTITLE6=Had Any Lately
TTITLE7=Not On The Outside
TTITLE8=Cowards Way Out
TTITLE9=Next Time I See You
TTITLE10=Gimmie A Little Action
TTITLE11=If You Get The Notion
EXTD=
EXTT0=
EXTT1=
EXTT2=
EXTT3=
EXTT4=
EXTT5=
EXTT6=
EXTT7=
EXTT8=
EXTT9=
EXTT10=
EXTT11=
PLAYORDER=
